<mxfile host="app.diagrams.net" modified="2023-10-19T10:14:50.349Z" agent="Mozilla/5.0 (Macintosh; Intel Mac OS X 10_15_7) AppleWebKit/537.36 (KHTML, like Gecko) Chrome/118.0.0.0 Safari/537.36" version="22.0.5" etag="h7mIlMNDdKlDOG7jOdri" type="github">
  <diagram name="페이지-1" id="E9Gri8rSNS-VKJFQFaEL">
    <mxGraphModel>
      <root>
        <mxCell id="0" />
        <mxCell id="1" parent="0" />
      </root>
    </mxGraphModel>
  </diagram>
</mxfile>
